<?xml version="1.0" encoding="utf-8"?>
<!-- Generator: Adobe Illustrator 22.0.1, SVG Export Plug-In . SVG Version: 6.00 Build 0)  -->
<svg version="1.1" id="Capa_1" xmlns="http://www.w3.org/2000/svg" xmlns:xlink="http://www.w3.org/1999/xlink" x="0px" y="0px"
	 viewBox="0 0 1275 358" style="enable-background:new 0 0 1275 358;" xml:space="preserve">
<style type="text/css">
	.st0{fill:#FFFFFF;}
	.st1{fill:#4D4D4D;}
	.st2{fill:#C02E5A;}
</style>
<g>
	<path class="st0" d="M435,191.5H420V41H435V191.5z"/>
	<path class="st0" d="M564.3,191.5h-15.1v-65.1c0-9.4-3.5-17.4-10.4-24.2C532,95.4,524.2,92,515,92c-9.2,0-17.4,3.3-24.2,10.2
		c-6.8,6.8-10.2,14.9-10.2,24.2v65.1h-15.1V128c0-14.5,4.7-26.4,14.1-36c9.4-9.6,21.1-14.5,35.4-14.5c14.1,0,25.8,4.9,35.2,14.5
		c9.4,9.6,14.1,21.5,14.1,36V191.5z"/>
	<path class="st0" d="M700,136.4c0.4,16-5.3,29.9-17.2,41.6c-11.9,11.5-25.8,17.2-41.8,16.6c-15.4-0.4-28.7-6.3-39.5-17.6
		s-16-24.8-16-40.5c0-16.2,5.9-30.3,17.4-41.8C614.4,83,628.3,77.4,644.3,78c16.4,0.6,30.1,7.2,41.1,19.7V41H700V136.4z M641.2,180
		c12.3,0.6,22.7-3.5,31.3-12.7c8.8-9.2,12.9-19.7,12.5-32.1c-0.2-11.7-4.5-21.7-12.5-30.1c-8-8.4-17.6-12.5-29.1-12.5
		c-11.7-0.2-21.9,4.1-30.3,12.5c-8.4,8.4-12.5,18.4-12.7,30.3c-0.2,11.7,3.7,22.1,11.7,30.9S629.6,179.6,641.2,180z"/>
	<path class="st0" d="M827.1,143.6c0,14.5-4.7,26.6-14.1,36.2c-9.2,9.6-20.9,14.5-35.2,14.5s-26-4.9-35.4-14.5
		c-9.2-9.6-13.9-21.7-13.9-36.2V80.1h15.1v65.3c0,9.4,3.3,17.4,10.2,24.2c6.8,6.6,14.9,10,24,10c9.2,0,17-3.3,23.8-10
		c6.8-6.8,10.4-14.9,10.4-24.2V80.1h15.1V143.6z"/>
	<path class="st0" d="M867.4,162.2c0,3.7,2.2,7.6,6.3,11.7c4.1,4.1,8.6,6.1,13.3,5.9c6.3-0.2,11.1-2,14.9-5.7
		c3.3-3.3,4.9-7.8,5.1-13.3c0.2-9.6-5.3-16-16.2-19.5l-13.1-4.1c-13.7-4.3-20.9-13.7-21.5-28c-0.4-8.6,2.5-16,8.6-22.1
		c6.3-6.1,13.7-9.4,22.5-9.8c7.6-0.4,14.7,2.1,21.1,7.4c6.6,5.3,10.2,11.7,10.8,19.6l0.2,3.3h-15.6v-2.5c0-7.8-7.8-13.1-16.4-13.1
		c-8.4,0.2-15.4,6.6-15.6,15.2c-0.6,8,4.3,13.7,14.3,17l12.9,4.3c14.9,5.1,22.9,15.1,23.8,29.7c0.8,10-2.7,18.8-10.6,26.2
		c-7.8,7.2-16.8,10.6-27,10c-9.4-0.6-17.2-4.5-23.7-11.3c-6.3-6.8-9.4-15.1-9.4-24.6h15.4V162.2z"/>
	<path class="st0" d="M989,193.9c-27.2,0-40.7-11.5-40.7-34.6V41h15.1v38.9H989v13.9h-25.6v62.9c0,16.6,8.6,24.8,25.6,24.8V193.9z"
		/>
	<path class="st0" d="M1027.8,191.5h-15.6V80.1h13.9v15.8c3.1-6.1,7.8-10.6,13.9-13.9c5.7-2.9,11.3-4.3,17.2-4.1v14.9
		c-6.8,0.2-12.5,2.1-16.8,5.7c-4.3,3.5-7.2,6.6-8.8,9.2c-2.5,4.3-3.7,10-3.7,17.2V191.5z"/>
	<path class="st0" d="M1100.6,66.8H1086V41h14.7V66.8z M1100.6,191.5H1086V80.1h14.7V191.5z"/>
	<path class="st0" d="M1238.2,191.5h-14.5v-17.4c-12.1,13.9-27,20.5-44.6,19.9c-15.4-0.6-28.5-6.5-39.3-17.8
		c-10.8-11.3-16.2-24.8-16.2-40.5c0-16.2,5.9-30.3,17.4-41.8c11.5-11.7,25.4-17.2,41.6-16.6c15.6,0.6,28.9,6.5,39.9,18
		c10.9,11.3,16.2,24.8,15.6,40.3v0.8V191.5z M1138.7,134.6c-0.2,11.7,3.5,22.1,11.5,30.9c8,8.8,17.8,13.3,29.1,13.9
		c12.3,0.6,22.7-3.7,31.3-12.7c8.8-9.2,12.9-19.9,12.7-32.3c-0.2-11.7-4.5-21.7-12.5-30.1s-17.8-12.5-29.1-12.5
		c-11.9,0-21.9,4.1-30.3,12.5S1138.9,122.7,1138.7,134.6z"/>
	<path class="st0" d="M1273.8,191.5H1259V41h14.9V191.5z"/>
</g>
<g>
	<path class="st1" d="M654.2,317.8H644v-88.9l-38.3,88.9h-8.5L559.3,229l0.3,88.7h-10.3V217.1h15.7l36.3,86.8l37.5-86.8h15.4V317.8z
		"/>
	<path class="st1" d="M733.4,285.8c0,9.7-3.1,17.8-9.4,24.2c-6.1,6.4-14,9.7-23.5,9.7c-9.5,0-17.4-3.3-23.7-9.7
		c-6.1-6.4-9.3-14.5-9.3-24.2v-42.5h10.1v43.6c0,6.3,2.2,11.6,6.8,16.2c4.6,4.4,9.9,6.7,16.1,6.7s11.4-2.2,15.9-6.7
		c4.6-4.6,6.9-9.9,6.9-16.2v-43.6h10.1V285.8z"/>
	<path class="st1" d="M820.8,293.3c-2.7,8-7.4,14.4-14.1,19.1c-6.7,4.7-14,7.1-22.1,7.2c-10.2,0.1-19.2-3.5-27.1-11.1
		c-7.8-7.7-11.9-16.7-12-27.3c-0.3-11.1,3.7-20.8,11.8-28.7c8.2-8.1,17.8-11.9,28.9-11.2c9.9,0.7,18.6,4.7,25.9,12.3
		c7.1,7.5,10.6,17,10.6,25.1v5.4h-66.9c0.8,7.5,3.9,13.7,9.5,18.6c5.6,4.8,12.2,7.3,19.7,7.2c11.8-0.1,20.1-5.6,25.2-16.3H820.8z
		 M812.8,274.8c-1.4-6.9-4.7-12.5-9.8-16.9c-5.1-4.3-11.2-6.5-18.4-6.7c-7.2-0.1-13.5,2.1-18.8,6.4c-5.4,4.3-8.6,10.1-10.1,17.1
		H812.8z"/>
	<path class="st1" d="M936,317.8h-9.9V217.1h9.9V317.8z"/>
	<g>
		<path class="st1" d="M835.9,279.9v-62.7h9.8v37.5c7.3-8.5,16.5-12.8,27.4-13.2c10.7-0.4,20,3.3,27.7,11.1
			c7.8,7.8,11.8,17.1,11.8,28c0,10.5-3.7,19.5-10.8,27.1c-7.2,7.6-16.1,11.5-26.4,11.9c-10.7,0.4-20-3.4-28-11.2
			c-8-7.8-11.8-17.1-11.5-27.8V279.9z M894.7,300.4c5.4-5.9,8-12.7,7.8-20.6c-0.1-7.8-3-14.5-8.6-20.1c-5.5-5.6-12.2-8.5-20.1-8.5
			c-7.6,0-14.1,2.7-19.5,8.4c-5.4,5.6-8.2,12.3-8.4,20.1c-0.3,8.2,2.5,15.4,8.4,21.6c5.9,6,12.8,8.9,20.9,8.5
			C883,309.3,889.4,306.3,894.7,300.4z"/>
		<path class="st1" d="M1024.4,293.3c-2.7,8-7.4,14.4-14.1,19.1c-6.7,4.7-14,7.1-22.1,7.2c-10.2,0.1-19.2-3.5-27.1-11.1
			c-7.8-7.7-11.9-16.7-12-27.3c-0.3-11.1,3.7-20.8,11.8-28.7c8.2-8.1,17.8-11.9,28.9-11.2c9.9,0.7,18.6,4.7,25.9,12.3
			c7.1,7.5,10.6,15.8,10.6,25.1v5.4h-66.9c0.8,7.5,3.9,13.7,9.5,18.6c5.6,4.8,12.2,7.3,19.7,7.2c11.8-0.1,20.1-5.6,25.2-16.3H1024.4
			z M1016.4,274.8c-1.4-6.9-4.7-12.5-9.8-16.9c-5.1-4.3-11.2-6.5-18.4-6.7c-7.2-0.1-13.5,2.1-18.8,6.4c-5.4,4.3-8.6,10.1-10.1,17.1
			H1016.4z"/>
	</g>
	<path class="st1" d="M1046.2,317.8h-10.5v-74.5h9.3v10.6c2.1-4,5.2-7.1,9.3-9.3c3.8-2,7.6-2.9,11.5-2.7v9.9
		c-4.6,0.1-8.4,1.4-11.2,3.8c-2.9,2.4-4.8,4.4-5.9,6.1c-1.7,2.9-2.5,6.7-2.5,11.5V317.8z"/>
	<path class="st1" d="M1138.4,317.8h-9.7v-11.6c-8.1,9.3-18,13.7-29.8,13.3c-10.3-0.4-19.1-4.3-26.3-11.9
		c-7.2-7.6-10.8-16.6-10.8-27.1c0-10.8,3.9-20.3,11.6-28c7.7-7.8,17-11.5,27.8-11.1c10.5,0.4,19.3,4.3,26.7,12
		c7.3,7.6,10.8,16.6,10.5,26.9v0.5V317.8z M1071.8,279.7c-0.1,7.8,2.4,14.8,7.7,20.6s11.9,8.9,19.5,9.3c8.2,0.4,15.2-2.5,20.9-8.5
		c5.9-6.1,8.6-13.3,8.5-21.6c-0.1-7.8-3-14.5-8.4-20.1c-5.4-5.6-11.9-8.4-19.5-8.4c-8,0-14.6,2.7-20.3,8.4
		C1074.7,265.1,1072,271.8,1071.8,279.7z"/>
</g>
<path class="st2" d="M324.4,0.7H35C16.3,0.7,1,16,1,34.8v289.4c0,18.7,15.3,34,34,34h289.4c18.7,0,34-15.3,34-34V34.8
	C358.4,16,343.1,0.7,324.4,0.7z M40.9,64.6C53.8,64.6,64.3,75,64.3,88c0,12.9-10.5,23.4-23.4,23.4c-12.9,0-23.4-10.5-23.4-23.4
	C17.5,75,27.9,64.6,40.9,64.6z M146.2,272.1c0,12.3-10,22.3-22.3,22.3h0c-12.3,0-22.3-10-22.3-22.3v-17.3c0-23.3-4.3-41.6-33.6-41.6
	v0c-0.4,0-0.6,0-0.6,0c-24.3,0-48.9-7.7-48.9-49.3v-18.3c0-11.8,9.6-21.3,21.3-21.3h1.9c11.8,0,21.3,9.6,21.3,21.3v18.3
	c0,23.3,4.3,41.6,33.6,41.6c0.4,0,0.6,0,0.6,0c24.3,0,48.9,7.7,48.9,49.3V272.1z M244.1,272.1c0,12.3-10,22.3-22.3,22.3
	c-12.3,0-22.3-10-22.3-22.3v-17.3c0-23.3-4.3-41.6-33.6-41.6v0c-0.4,0-0.6,0-0.6,0c-24.3,0-48.9-7.7-48.9-49.3v-18.3
	c0-11.8,9.6-21.3,21.3-21.3h1.9c11.8,0,21.3,9.6,21.3,21.3v18.3c0,23.3,4.3,41.6,33.6,41.6c0.4,0,0.6,0,0.6,0
	c24.3,0,48.9,7.7,48.9,49.3V272.1z M342,272.1c0,12.3-10,22.3-22.3,22.3h0c-12.3,0-22.3-10-22.3-22.3v-17.3
	c0-23.3-4.3-41.6-33.6-41.6v0c-0.4,0-0.6,0-0.6,0c-24.3,0-48.9-7.7-48.9-49.3v-18.3c0-11.8,9.6-21.3,21.3-21.3h1.9
	c11.8,0,21.3,9.6,21.3,21.3v18.3c0,23.3,4.3,41.6,33.6,41.6c0.4,0,0.6,0,0.6,0c24.3,0,48.9,7.7,48.9,49.3V272.1z"/>
</svg>
